HIERARCHY
ROOT Hips
{
	OFFSET -0.001795 -0.223333 0.028219
	CHANNELS 6 Xposition Yposition Zposition Zrotation Yrotation Xrotation 
	JOINT LeftUpLeg
	{
		OFFSET 0.069520 -0.091406 -0.006815
		CHANNELS 3 Zrotation Yrotation Xrotation
		JOINT LeftLeg
		{
			OFFSET 0.034277 -0.375199 -0.004496
			CHANNELS 3 Zrotation Yrotation Xrotation
			JOINT LeftFoot
			{
				OFFSET -0.013596 -0.397961 -0.043693
				CHANNELS 3 Zrotation Yrotation Xrotation
				JOINT LeftToe
				{
					OFFSET 0.026358 -0.055791 0.119288
					CHANNELS 3 Zrotation Yrotation Xrotation
					End Site
					{
						OFFSET 0.000000 0.000000 0.000000
					}
				}
			}
		}
	}
	JOINT RightUpLeg
	{
		OFFSET -0.067670 -0.090522 -0.004320
		CHANNELS 3 Zrotation Yrotation Xrotation
		JOINT RightLeg
		{
			OFFSET -0.038290 -0.382569 -0.008850
			CHANNELS 3 Zrotation Yrotation Xrotation
			JOINT RightFoot
			{
				OFFSET 0.015774 -0.398415 -0.042312
				CHANNELS 3 Zrotation Yrotation Xrotation
				JOINT RightToe
				{
					OFFSET -0.025372 -0.048144 0.123348
					CHANNELS 3 Zrotation Yrotation Xrotation
					End Site
					{
						OFFSET 0.000000 0.000000 0.000000
					}
				}
			}
		}
	}
	JOINT Spine
	{
		OFFSET -0.002533 0.108963 -0.026696
		CHANNELS 3 Zrotation Yrotation Xrotation
		JOINT Spine1
		{
			OFFSET 0.005487 0.135180 0.001092
			CHANNELS 3 Zrotation Yrotation Xrotation
			JOINT Spine2
			{
				OFFSET 0.001457 0.052922 0.025425
				CHANNELS 3 Zrotation Yrotation Xrotation
				JOINT Neck
				{
					OFFSET -0.002778 0.213870 -0.042857
					CHANNELS 3 Zrotation Yrotation Xrotation
					JOINT Head
					{
						OFFSET 0.005152 0.064970 0.051349
						CHANNELS 3 Zrotation Yrotation Xrotation
						End Site
						{
							OFFSET 0.000000 0.000000 0.000000
						}
					}
				}
				JOINT LeftShoulder
				{
					OFFSET 0.078845 0.121749 -0.034090
					CHANNELS 3 Zrotation Yrotation Xrotation
					JOINT LeftArm
					{
						OFFSET 0.090977 0.030469 -0.008868
						CHANNELS 3 Zrotation Yrotation Xrotation
						JOINT LeftForeArm
						{
							OFFSET 0.259612 -0.012772 -0.027456
							CHANNELS 3 Zrotation Yrotation Xrotation
							JOINT LeftHand
							{
								OFFSET 0.249234 0.008986 -0.001171
								CHANNELS 3 Zrotation Yrotation Xrotation
								End Site
								{
									OFFSET 0.000000 0.000000 0.000000
								}
							}
						}
					}
				}
				JOINT RightShoulder
				{
					OFFSET -0.081759 0.118833 -0.038615
					CHANNELS 3 Zrotation Yrotation Xrotation
					JOINT RightArm
					{
						OFFSET -0.096012 0.032551 -0.009143
						CHANNELS 3 Zrotation Yrotation Xrotation
						JOINT RightForeArm
						{
							OFFSET -0.253742 -0.013329 -0.021401
							CHANNELS 3 Zrotation Yrotation Xrotation
							JOINT RightHand
							{
								OFFSET -0.255298 0.007772 -0.005559
								CHANNELS 3 Zrotation Yrotation Xrotation
								End Site
								{
									OFFSET 0.000000 0.000000 0.000000
								}
							}
						}
					}
				}
			}
		}
	}
}
MOTION
Frames: 10
Frame Time: 0.050000
-0.026338 0.955996 0.219727 2.800819 -17.183257 8.116218 8.338281 -0.008910 -10.449648 -5.323710 0.940423 4.618269 14.126985 24.557224 18.394002 0.000000 0.000000 0.000000 -10.502187 2.110523 -28.272512 3.292007 0.504966 17.435228 3.584649 -0.525789 12.665529 0.000000 0.000000 0.000000 17.321441 -3.772147 22.995974 2.050746 -0.593527 -15.947444 5.740600 -1.958377 22.385161 19.792202 -14.173363 -12.918699 0.000000 0.000000 0.000000 10.848371 -19.179722 4.567927 -37.119672 -23.727308 2.427421 -43.073382 -67.303484 36.898779 0.000000 0.000000 0.000000 17.832998 19.298637 5.859911 43.653973 47.018919 11.352561 21.440871 36.783360 7.453214 0.000000 0.000000 0.000000 
-0.026891 0.955590 0.220276 2.755063 -17.114566 8.297940 8.374653 -0.006984 -10.795259 -5.216117 0.924463 4.799826 13.937752 24.286831 18.372247 0.000000 0.000000 0.000000 -10.370900 2.134042 -28.355653 3.339802 0.496378 17.508087 3.419813 -0.693544 12.415241 0.000000 0.000000 0.000000 17.330506 -3.779479 22.893867 2.145763 -0.618462 -15.956213 5.692908 -2.126667 22.365329 19.451165 -13.978393 -12.783266 0.000000 0.000000 0.000000 10.518705 -19.127193 4.634155 -36.297860 -24.336929 2.510460 -39.687801 -67.930331 34.719185 0.000000 0.000000 0.000000 17.972418 19.249207 5.794689 43.691531 46.781650 11.282366 21.556916 36.783155 7.479969 0.000000 0.000000 0.000000 
-0.027213 0.955290 0.220774 2.717630 -17.141365 8.513785 8.356874 -0.011241 -11.015105 -5.228432 0.929646 4.870712 13.894780 24.251255 18.212109 0.000000 0.000000 0.000000 -10.379845 2.150576 -28.500034 3.387785 0.480138 17.428246 3.438926 -0.721642 12.527832 0.000000 0.000000 0.000000 17.279757 -3.768663 22.777054 2.066277 -0.592089 -15.998678 5.740204 -2.305515 22.433747 19.094221 -13.807256 -12.540250 0.000000 0.000000 0.000000 9.856539 -19.368339 4.861946 -35.465145 -25.012883 2.575866 -36.922333 -68.845450 33.191587 0.000000 0.000000 0.000000 18.092441 19.244816 5.733020 43.481945 46.317698 11.028638 22.163682 37.071559 7.718030 0.000000 0.000000 0.000000 
-0.027277 0.954989 0.221273 2.750511 -17.385446 8.645276 8.146863 -0.028304 -11.310492 -4.891816 0.881929 5.253479 13.912540 24.234637 18.281317 0.000000 0.000000 0.000000 -10.385756 2.193050 -28.732953 3.522039 0.462927 17.482441 3.471160 -0.625146 12.432122 0.000000 0.000000 0.000000 17.312970 -3.774079 22.881460 1.980103 -0.571745 -15.970831 5.664052 -2.531252 22.246380 18.744820 -13.616922 -12.275365 0.000000 0.000000 0.000000 9.316469 -19.528098 5.045289 -35.148974 -25.267481 2.623710 -35.134604 -69.707463 32.402945 0.000000 0.000000 0.000000 18.190880 19.402094 5.696077 43.217439 46.006528 10.853231 23.109559 37.150097 7.990176 0.000000 0.000000 0.000000 
-0.027181 0.954711 0.221735 2.734253 -17.572433 8.697099 8.092401 -0.031829 -11.241076 -4.783908 0.866066 5.316946 13.841704 24.171990 18.006977 0.000000 0.000000 0.000000 -10.377473 2.219897 -28.843755 3.457801 0.477533 17.395619 3.668829 -0.314767 12.538671 0.000000 0.000000 0.000000 17.276684 -3.793913 23.214952 1.956213 -0.559969 -16.117056 5.610576 -2.686711 22.307129 18.353987 -13.404871 -12.057423 0.000000 0.000000 0.000000 8.985941 -19.557021 5.135137 -35.527909 -25.802906 2.846949 -34.303165 -70.537017 32.352544 0.000000 0.000000 0.000000 18.012999 19.489610 5.672546 43.189242 45.677115 10.706936 24.146688 37.506329 8.376494 0.000000 0.000000 0.000000 
-0.027053 0.954497 0.222164 2.802660 -18.038659 8.563810 7.878572 -0.044674 -11.060656 -4.612223 0.849970 5.566129 13.822643 24.135516 17.870983 0.000000 0.000000 0.000000 -10.356788 2.245217 -28.713685 3.348263 0.522277 17.438070 3.997246 0.382398 12.389214 0.000000 0.000000 0.000000 17.243649 -3.800551 23.741227 1.806786 -0.526149 -16.080912 5.361729 -2.714001 22.162364 17.677345 -13.110625 -11.284400 0.000000 0.000000 0.000000 8.591122 -19.605343 5.249885 -35.629904 -25.902969 2.893737 -33.798128 -70.902771 32.236934 0.000000 0.000000 0.000000 18.094367 19.566946 5.630411 43.100971 45.351337 10.591282 25.156317 38.293520 8.864886 0.000000 0.000000 0.000000 
-0.026899 0.954245 0.222565 2.932582 -18.504348 8.394783 7.759678 -0.044217 -10.986319 -4.585774 0.868117 5.912820 13.707739 23.986569 17.583623 0.000000 0.000000 0.000000 -10.368839 2.283191 -28.782468 3.228306 0.587994 17.746541 4.142899 0.697299 12.273284 0.000000 0.000000 0.000000 17.149282 -3.776401 24.127740 1.453875 -0.434811 -16.029093 5.357867 -3.058838 22.224532 17.002754 -12.796506 -10.725983 0.000000 0.000000 0.000000 8.086157 -19.506575 5.338996 -35.892823 -25.538674 2.823663 -35.569533 -71.088617 33.876029 0.000000 0.000000 0.000000 18.255132 19.803994 5.577184 42.840484 45.110501 10.434343 26.084583 38.768493 9.226793 0.000000 0.000000 0.000000 
-0.026702 0.954143 0.222897 3.149236 -18.853898 8.177836 7.604236 -0.052813 -10.760123 -4.616858 0.888542 6.058767 13.496205 23.678975 17.437185 0.000000 0.000000 0.000000 -10.517180 2.283664 -28.759015 3.184762 0.627964 17.973014 4.416557 1.043786 12.532002 0.000000 0.000000 0.000000 17.053915 -3.759636 24.571351 1.143177 -0.350186 -16.006018 5.065645 -3.209286 22.204379 16.390851 -12.569254 -9.791199 0.000000 0.000000 0.000000 7.915354 -19.503890 5.376571 -35.845250 -25.260512 2.741063 -37.001359 -71.056262 35.052930 0.000000 0.000000 0.000000 18.390594 19.928766 5.535366 42.821189 44.940610 10.397001 26.736884 39.357641 9.557635 0.000000 0.000000 0.000000 
-0.026465 0.953968 0.223146 3.168883 -19.092731 8.032343 7.617913 -0.040591 -10.736814 -4.566444 0.898378 6.397846 13.320534 23.448981 17.166628 0.000000 0.000000 0.000000 -10.464538 2.310196 -28.771327 3.220619 0.653519 18.274027 4.528746 1.306048 12.440634 0.000000 0.000000 0.000000 16.871626 -3.725787 24.887286 1.087003 -0.335962 -16.094130 4.945694 -3.391160 22.430634 16.072902 -12.423087 -9.562133 0.000000 0.000000 0.000000 7.815043 -19.318162 5.332172 -35.945123 -24.760467 2.596875 -38.441543 -70.685780 36.040343 0.000000 0.000000 0.000000 18.413826 20.127919 5.552476 42.525566 44.986908 10.303557 27.365954 39.688582 9.827681 0.000000 0.000000 0.000000 
-0.026149 0.953931 0.223351 3.194910 -19.275337 7.949720 7.622758 -0.035554 -10.572217 -4.613764 0.908401 6.307611 13.271478 23.319044 17.384510 0.000000 0.000000 0.000000 -10.571266 2.317916 -28.877989 3.193469 0.683142 18.493542 4.823881 1.579819 12.905457 0.000000 0.000000 0.000000 16.756885 -3.701648 25.070869 0.898969 -0.288674 -15.971570 4.716898 -3.426345 22.340504 15.787240 -12.282781 -9.218895 0.000000 0.000000 0.000000 7.603683 -19.083994 5.314714 -35.912562 -24.217455 2.407999 -40.062006 -70.470883 37.214663 0.000000 0.000000 0.000000 18.384303 20.108995 5.509730 42.721386 45.016830 10.386512 27.819812 40.227624 10.119602 0.000000 0.000000 0.000000 
